<svg xmlns="http://www.w3.org/2000/svg" viewBox="0 0 96 96">
  <path fill="#f8f7f9" d="M48.5326 2.2218a45.77 45.77 0 0 0-45.77 45.77 45.77 45.77 0 0 0 45.77 45.77 45.77 45.77 0 0 0 11.283-1.4121 36.892 36.892 0 0 1-3.5059.16797 36.892 36.892 0 0 1-36.893-36.893 36.892 36.892 0 0 1 36.893-36.893 36.892 36.892 0 0 1 36.893 36.893 36.892 36.892 0 0 1-.10742 2.8125 45.77 45.77 0 0 0 1.207-10.445 45.77 45.77 0 0 0-45.77-45.77z"/>
  <path fill="#aa2212" d="M56.1236 23.7208a32.208 32.208 0 0 0-32.208 32.208 32.208 32.208 0 0 0 32.208 32.208 32.208 32.208 0 0 0 7.94-.99371 25.961 25.961 0 0 1-2.4671.1182 25.961 25.961 0 0 1-25.961-25.961 25.961 25.961 0 0 1 25.961-25.961 25.961 25.961 0 0 1 25.961 25.961 25.961 25.961 0 0 1-.075594 1.9792 32.208 32.208 0 0 0 .84939-7.3504 32.208 32.208 0 0 0-32.208-32.208z"/>
  <path fill="#f8f7f9" d="M61.2466 41.7468a19.673 19.673 0 0 0-19.674 19.672 19.673 19.673 0 0 0 19.674 19.674 19.673 19.673 0 0 0 19.672-19.674 19.673 19.673 0 0 0-19.672-19.672m.57227 7.2832a12.446 12.446 0 0 1 12.445 12.445 12.446 12.446 0 0 1-12.445 12.445 12.446 12.446 0 0 1-12.447-12.445 12.446 12.446 0 0 1 12.447-12.445"/>
</svg>
